<?xml version="1.0" encoding="utf-8"?>
<!-- Generator: Adobe Illustrator 22.1.0, SVG Export Plug-In . SVG Version: 6.00 Build 0)  -->
<svg version="1.1" id="Calque_1" xmlns="http://www.w3.org/2000/svg" xmlns:xlink="http://www.w3.org/1999/xlink" x="0px" y="0px"
	 viewBox="0 0 120 114" style="enable-background:new 0 0 120 114;" xml:space="preserve">
<g>
	<path d="M107.1,25.7l-0.2-0.7c5.1-1.7,8.8-6.5,8.8-12.1C115.7,8.6,110,0,102.9,0c-4.9,0-9,2.7-11.2,6.7C84.1,3.4,73.2,0,60,0
		S35.9,3.4,28.4,6.7C26.2,2.7,22,0,17.1,0C10,0,4.3,8.6,4.3,12.9c0,5.7,3.7,10.4,8.8,12.1l-0.2,0.7L0,68.6c0,0,0,32.6,60,45.4
		c60-12.9,60-45.4,60-45.4L107.1,25.7z M60,64.3c0,0-25.7,0-21.4-21.5C43.7,17.3,60,17.1,60,17.1s16.3,0.2,21.4,25.8
		C85.7,64.3,60,64.3,60,64.3z"/>
	<path d="M69.1,41.8c-2.7-1.4-5.4-1.9-7.9-2v-5.5c0-2.5,5.5-3.1,7.4-3.1c0.7,0,1.2-0.5,1.2-1.2c0-3.4-2-9.8-9.8-9.8
		c-3.4,0-9.8,2-9.8,9.8c0,0.7,0.5,1.2,1.2,1.2c1.9,0,7.4,0.6,7.4,3.1v5.5c-4.5,0.3-7.7,1.9-7.9,2c-0.6,0.3-0.8,1-0.5,1.6
		s1,0.8,1.6,0.5c0.1,0,8.2-4,16.1,0c0.2,0.1,0.4,0.1,0.5,0.1c0.4,0,0.9-0.2,1.1-0.7C70,42.8,69.7,42.1,69.1,41.8z"/>
</g>
</svg>
